HIERARCHY
ROOT Hips
{
	OFFSET -218.283997 91.576897 -173.547501
	CHANNELS 6 Xposition Yposition Zposition Zrotation Yrotation Xrotation 
	JOINT LeftUpLeg
	{
		OFFSET 0.103458 1.857835 10.548497
		CHANNELS 3 Zrotation Yrotation Xrotation
		JOINT LeftLeg
		{
			OFFSET 43.500000 -0.000034 -0.000013
			CHANNELS 3 Zrotation Yrotation Xrotation
			JOINT LeftFoot
			{
				OFFSET 42.372192 0.000011 0.000010
				CHANNELS 3 Zrotation Yrotation Xrotation
				JOINT LeftToe
				{
					OFFSET 17.299994 -0.000002 -0.000009
					CHANNELS 3 Zrotation Yrotation Xrotation
					End Site
					{
						OFFSET 0.000000 0.000000 0.000000
					}
				}
			}
		}
	}
	JOINT RightUpLeg
	{
		OFFSET 0.103456 1.857832 -10.548508
		CHANNELS 3 Zrotation Yrotation Xrotation
		JOINT RightLeg
		{
			OFFSET 43.500038 -0.000027 0.000004
			CHANNELS 3 Zrotation Yrotation Xrotation
			JOINT RightFoot
			{
				OFFSET 42.372261 -0.000011 0.000014
				CHANNELS 3 Zrotation Yrotation Xrotation
				JOINT RightToe
				{
					OFFSET 17.299995 -0.000004 0.000011
					CHANNELS 3 Zrotation Yrotation Xrotation
					End Site
					{
						OFFSET 0.000000 0.000000 0.000000
					}
				}
			}
		}
	}
	JOINT Spine
	{
		OFFSET 6.901970 -2.603727 -0.000002
		CHANNELS 3 Zrotation Yrotation Xrotation
		JOINT Spine1
		{
			OFFSET 12.588097 -0.000001 0.000008
			CHANNELS 3 Zrotation Yrotation Xrotation
			JOINT Spine2
			{
				OFFSET 12.343203 0.000000 -0.000005
				CHANNELS 3 Zrotation Yrotation Xrotation
				JOINT Neck
				{
					OFFSET 25.832903 -0.000002 -0.000005
					CHANNELS 3 Zrotation Yrotation Xrotation
					JOINT Head
					{
						OFFSET 11.766603 0.000011 -0.000000
						CHANNELS 3 Zrotation Yrotation Xrotation
						End Site
						{
							OFFSET 0.000000 0.000000 0.000000
						}
					}
				}
				JOINT LeftShoulder
				{
					OFFSET 19.745899 -1.480377 6.000100
					CHANNELS 3 Zrotation Yrotation Xrotation
					JOINT LeftArm
					{
						OFFSET 11.284134 -0.000021 -0.000017
						CHANNELS 3 Zrotation Yrotation Xrotation
						JOINT LeftForeArm
						{
							OFFSET 33.000053 0.000002 0.000032
							CHANNELS 3 Zrotation Yrotation Xrotation
							JOINT LeftHand
							{
								OFFSET 25.200005 0.000020 0.000008
								CHANNELS 3 Zrotation Yrotation Xrotation
								End Site
								{
									OFFSET 0.000000 0.000000 0.000000
								}
							}
						}
					}
				}
				JOINT RightShoulder
				{
					OFFSET 19.746092 -1.480377 -6.000073
					CHANNELS 3 Zrotation Yrotation Xrotation
					JOINT RightArm
					{
						OFFSET 11.284133 -0.000016 -0.000019
						CHANNELS 3 Zrotation Yrotation Xrotation
						JOINT RightForeArm
						{
							OFFSET 33.000092 0.000022 0.000006
							CHANNELS 3 Zrotation Yrotation Xrotation
							JOINT RightHand
							{
								OFFSET 25.199783 0.000138 0.000434
								CHANNELS 3 Zrotation Yrotation Xrotation
								End Site
								{
									OFFSET 0.000000 0.000000 0.000000
								}
							}
						}
					}
				}
			}
		}
	}
}
MOTION
Frames: 7
Frame Time: 0.033333
224.396896 83.404869 477.865601 87.117731 0.797449 -29.462905 173.622261 -0.531094 170.765043 -48.80107 2.286438 0.005551 105.098498 -0.163329 -2.843837 21.454562 0.003113 1.8e-05 143.801259 11.346609 -177.374371 -29.124155 3.191324 3.414548 77.392436 -0.552325 7.218314 21.454551 -0.003093 0.0 13.354381 0.319917 -0.892338 16.690506 0.765367 -1.729093 16.372525 0.754782 -1.733695 2.813519 -7.583606 -4.21879 -37.553521 9.018665 -10.905055 159.202502 -73.237687 19.931303 -24.947374 44.087515 20.440186 -50.269448 -22.994221 2.325479 0.14516 -2.877636 17.734308 -171.395797 80.072036 10.272951 -18.840464 -58.728794 -29.364554 -40.189069 19.182311 -1.73565 3.360938 15.969095 0.454161 
221.964294 81.75309 475.654907 86.076865 1.408808 -27.910764 175.080042 0.052795 172.256783 -51.692798 2.475245 -0.151343 107.395197 -0.015778 -3.598216 21.454562 0.00311 1.7e-05 142.703989 12.716598 179.09562 -23.120616 3.381645 4.280269 77.856602 -1.033808 7.834933 21.454557 -0.003097 -1e-06 13.632766 0.418429 -1.151448 17.243547 1.003983 -2.227587 16.925656 0.990371 -2.233611 2.474514 -7.689912 -4.539963 -38.315626 8.775686 -11.232341 156.971203 -73.063626 22.221961 -26.705895 43.218473 19.765207 -50.393604 -23.10918 2.337555 0.126191 -1.278448 19.699114 -171.170606 80.224281 10.503045 -18.937966 -58.712381 -29.531429 -40.050976 19.093599 -1.72615 2.801643 14.332833 0.37645 
219.524597 79.961311 473.4021 85.350358 1.804519 -26.548319 176.479056 0.097706 173.65047 -54.681139 2.547051 -0.26503 109.749802 0.138341 -4.418088 21.454558 0.00311 1.7e-05 141.599083 13.498394 175.154177 -19.245089 3.467529 4.831481 78.532941 -1.59698 7.334354 21.454553 -0.003088 1e-06 13.904698 0.630298 -1.283076 17.782329 1.450472 -2.453985 17.464445 1.435495 -2.46271 1.773059 -7.735738 -4.954024 -38.821976 8.272894 -11.48416 155.028055 -72.886048 24.217909 -28.388334 42.830105 18.550121 -50.824746 -23.16579 2.356195 -0.021228 -0.968393 21.323477 -169.316537 80.291715 12.385998 -19.245958 -58.522236 -29.72344 -39.837918 18.940021 -1.710441 2.489175 13.079623 0.067077 
217.294403 78.259109 471.203796 85.186263 1.769031 -25.210874 177.465062 -0.555496 175.111953 -57.639092 2.652829 -0.394279 111.759298 0.313314 -5.183275 21.454558 0.003105 1.7e-05 140.125839 13.746995 172.378484 -18.853479 3.70799 4.649452 77.171869 -1.280138 7.69072 21.45455 -0.003086 2e-06 14.12996 1.016241 -1.35045 18.225827 2.232633 -2.524108 17.907801 2.217219 -2.537553 1.254402 -7.896745 -5.215766 -39.253087 7.771832 -11.569309 152.958398 -72.700745 26.343469 -29.462858 43.0684 17.30068 -51.385607 -23.495251 2.398156 -0.334957 -1.624063 22.098613 -169.895642 80.4264 11.79796 -19.731776 -58.085964 -29.696703 -39.368517 18.595368 -1.675568 2.326413 12.409113 0.065895 
215.407806 76.799438 469.162994 86.045371 1.081834 -24.4155 177.351094 -2.055207 176.390059 -60.995877 2.922156 -0.780128 112.818695 0.611822 -6.02008 21.454557 0.003109 1.8e-05 136.693887 12.2688 172.076289 -24.595788 3.276476 4.128945 67.693226 -0.460038 7.13389 21.454553 -0.003096 0.0 14.234562 1.564077 -1.162133 18.434105 3.293344 -2.060624 18.115668 3.280709 -2.080498 1.016507 -7.568031 -5.503598 -40.082965 7.014453 -11.460201 151.106529 -72.676997 28.236419 -30.345185 43.883077 15.788602 -51.999374 -23.641062 2.42964 -0.439758 -3.510554 22.156691 -170.927424 80.546556 10.750976 -20.313618 -57.579048 -29.687677 -38.726995 18.354872 -1.643221 2.009094 12.01202 -0.190304 
213.444199 75.231949 466.989502 86.874132 0.364062 -24.553036 177.059622 -3.949997 176.584514 -65.172804 3.214797 -0.716323 112.461599 0.568754 -6.66418 21.454555 0.003105 1.9e-05 132.027803 11.084904 173.296775 -33.767878 3.566065 2.557346 63.520773 1.190398 7.718517 21.454551 -0.003093 0.0 14.471463 2.141697 -0.876648 18.917121 4.397801 -1.391725 18.598115 4.389176 -1.418314 0.11037 -7.830962 -5.542053 -40.719914 6.801772 -11.538478 152.89067 -72.358928 26.432786 -31.748632 44.620673 13.35944 -52.912973 -23.712491 2.466958 -0.712642 -5.498573 22.129753 -174.644904 80.787443 6.97998 -21.474456 -56.182264 -29.049969 -38.103703 18.128002 -1.612534 1.841673 12.311083 -1.252679 
211.445206 74.002167 464.937988 87.874687 0.359964 -25.654332 175.87998 -5.120302 176.244931 -69.796754 3.436384 -0.669883 108.826217 0.34341 -6.798309 21.45455 0.003105 1.7e-05 127.788987 10.674101 177.440747 -41.682759 2.627594 0.070385 63.470701 2.902661 7.345354 21.45455 -0.003097 -1e-06 14.750502 2.5245 -0.660178 19.487713 5.123946 -0.885819 19.168275 5.11837 -0.916842 -1.106906 -7.352052 -5.161549 -41.612528 6.234309 -10.853288 152.565608 -71.920594 26.790968 -32.115157 45.813084 10.312196 -54.053687 -23.899242 2.52102 -0.923266 -8.315717 21.641352 176.540214 80.913747 -1.959966 -23.913594 -53.733327 -27.829319 -37.005808 17.90239 -1.570507 1.843362 13.073701 -1.827236 
